<svg width="125" height="56" viewBox="0 0 125 56" fill="none" xmlns="http://www.w3.org/2000/svg">
<g filter="url(#filter0_d)">
<path fill-rule="evenodd" clip-rule="evenodd" d="M22.8721 8.66989C23.0526 8.70202 23.2231 8.77546 23.3705 8.88447C23.5178 8.99348 23.6379 9.13511 23.7214 9.29826C23.805 9.46142 23.8496 9.64169 23.8518 9.82497C23.8541 10.0082 23.8139 10.1896 23.7344 10.3547L29.8673 16.3009L29.629 16.5502L23.5379 10.6445C23.4304 10.7625 23.2999 10.8571 23.1544 10.9228C23.0089 10.9884 22.8515 11.0236 22.692 11.0261C22.5324 11.0287 22.374 10.9986 22.2265 10.9377C22.079 10.8768 21.9455 10.7864 21.8342 10.672L15.7718 16.547L15.5336 16.2976L21.6299 10.3873C21.5399 10.2177 21.493 10.0285 21.4934 9.83641C21.4941 9.54838 21.5993 9.2704 21.7897 9.05423C21.98 8.83807 22.2425 8.69846 22.5281 8.6614V0.0147106H22.8721V8.66989ZM46.3721 30.2625V35.2778C46.3606 36.8137 46.6532 38.3367 47.233 39.759C47.8128 41.1814 48.6684 42.4749 49.7504 43.565C50.8324 44.6552 52.1195 45.5204 53.5374 46.1108C54.9554 46.7013 56.4761 47.0053 58.0121 47.0053C59.5481 47.0053 61.0689 46.7013 62.4868 46.1108C63.9047 45.5204 65.1918 44.6552 66.2738 43.565C67.3559 42.4749 68.2114 41.1814 68.7912 39.759C69.371 38.3367 69.6636 36.8137 69.6521 35.2778V30.2625C69.6382 27.5675 68.6926 24.9602 66.9757 22.8828C68.7093 20.8608 69.659 18.2834 69.6521 15.62V11.7275C69.6636 10.1916 69.371 8.66857 68.7912 7.24624C68.2114 5.82392 67.3559 4.5304 66.2738 3.44025C65.1918 2.3501 63.9047 1.48487 62.4868 0.894426C61.0689 0.303982 59.5481 0 58.0121 0C56.4761 0 54.9554 0.303982 53.5374 0.894426C52.1195 1.48487 50.8324 2.3501 49.7504 3.44025C48.6684 4.5304 47.8128 5.82392 47.233 7.24624C46.6532 8.66857 46.3606 10.1916 46.3721 11.7275V15.62C46.3256 18.27 47.2346 20.8481 48.933 22.8828C47.2507 24.972 46.3456 27.5803 46.3721 30.2625ZM55.1017 15.62V11.7275C55.0967 11.3431 55.1685 10.9616 55.3128 10.6053C55.457 10.2489 55.6709 9.92496 55.9419 9.65229C56.2128 9.37961 56.5355 9.16371 56.8909 9.01722C57.2463 8.87073 57.6274 8.79659 58.0118 8.79914C58.7821 8.81383 59.5166 9.12763 60.0597 9.67416C60.6028 10.2207 60.912 10.9571 60.9219 11.7275V15.62C60.9122 16.3906 60.6031 17.1271 60.0599 17.6738C59.5168 18.2204 58.7822 18.5343 58.0118 18.549C57.6273 18.5516 57.2462 18.4774 56.8907 18.3309C56.5353 18.1844 56.2126 17.9684 55.9416 17.6957C55.6706 17.4229 55.4568 17.0989 55.3126 16.7425C55.1683 16.386 55.0966 16.0045 55.1017 15.62ZM55.1017 35.2778V30.2625C55.0968 29.8781 55.1687 29.4967 55.313 29.1404C55.4573 28.7842 55.6711 28.4603 55.9421 28.1877C56.2131 27.9151 56.5357 27.6992 56.8911 27.5528C57.2464 27.4063 57.6274 27.3322 58.0118 27.3348C58.7821 27.3493 59.5165 27.6629 60.0596 28.2094C60.6028 28.7558 60.912 29.4921 60.9219 30.2625V35.2778C60.912 36.0482 60.6028 36.7846 60.0597 37.3311C59.5166 37.8776 58.7821 38.1914 58.0118 38.2061C57.6274 38.2087 57.2463 38.1345 56.8909 37.988C56.5355 37.8416 56.2128 37.6257 55.9419 37.353C55.6709 37.0803 55.457 36.7563 55.3128 36.4C55.1685 36.0437 55.0967 35.6622 55.1017 35.2778ZM18.5461 35.2778C18.5519 35.6635 18.4809 36.0466 18.3373 36.4047C18.1936 36.7628 17.9803 37.0888 17.7095 37.3636C17.4387 37.6385 17.116 37.8567 16.7601 38.0057C16.4042 38.1547 16.0222 38.2314 15.6364 38.2314C15.2506 38.2314 14.8686 38.1547 14.5127 38.0057C14.1568 37.8567 13.8341 37.6385 13.5633 37.3636C13.2925 37.0888 13.0791 36.7628 12.9355 36.4047C12.7918 36.0466 12.7209 35.6635 12.7266 35.2778V18.7194H4.00029V35.2778C3.98937 36.8139 4.28227 38.3371 4.86215 39.7597C5.44202 41.1823 6.29742 42.4762 7.37917 43.567C8.46091 44.6578 9.74765 45.5239 11.1654 46.1156C12.5831 46.7073 14.1037 47.0129 15.64 47.0147C18.3128 47.0329 20.9075 46.1141 22.9733 44.418C24.9945 46.1122 27.5524 47.0326 30.1897 47.0147C31.7287 47.0227 33.2539 46.7239 34.6761 46.1357C36.0983 45.5475 37.389 44.6817 38.4727 43.5889C39.5564 42.4962 40.4114 41.1983 40.9878 39.7713C41.5642 38.3443 41.8503 36.8167 41.8294 35.2778V18.7194H33.0998V35.2778C33.0998 36.0496 32.7932 36.7898 32.2475 37.3355C31.7017 37.8813 30.9615 38.1879 30.1897 38.1879C29.4179 38.1879 28.6777 37.8813 28.132 37.3355C27.5862 36.7898 27.2796 36.0496 27.2796 35.2778V18.7194H18.5501V35.2778H18.5461ZM77.381 26.5456C77.3863 26.8355 77.3267 27.123 77.2067 27.387C77.0926 27.6309 76.9232 27.8448 76.7119 28.0117C76.4846 28.1875 76.2255 28.3178 75.9488 28.3955C75.6319 28.4855 75.3037 28.5295 74.9742 28.5261C74.7656 28.526 74.5573 28.5087 74.3515 28.4745C74.1719 28.4435 73.9948 28.3998 73.8214 28.344C73.6839 28.3002 73.5503 28.2452 73.4219 28.1795C73.3372 28.1371 73.2575 28.0854 73.1843 28.0254C73.1305 27.9731 73.0927 27.9065 73.0753 27.8335C73.0488 27.7235 73.0371 27.6104 73.0407 27.4973C73.0399 27.4237 73.0445 27.3502 73.0544 27.2773C73.061 27.2288 73.0726 27.1811 73.089 27.135C73.0978 27.1044 73.1166 27.0775 73.1424 27.0587C73.1681 27.0399 73.1994 27.0303 73.2313 27.0312C73.3125 27.0425 73.3892 27.0749 73.4539 27.1252C73.5518 27.1866 73.6706 27.2558 73.8149 27.3269C73.9778 27.4076 74.1469 27.4749 74.3208 27.528C74.5394 27.5938 74.7668 27.6253 74.9951 27.6213C75.1698 27.6233 75.344 27.6027 75.5134 27.56C75.6571 27.5233 75.7932 27.4616 75.9155 27.3779C76.0265 27.3001 76.1163 27.1957 76.1766 27.0743C76.2423 26.9371 76.2745 26.7864 76.2706 26.6343C76.276 26.478 76.2301 26.3242 76.1401 26.1963C76.0434 26.0707 75.9246 25.9639 75.7895 25.881C75.6335 25.7844 75.4687 25.7027 75.2973 25.6369C75.1172 25.567 74.9285 25.4926 74.7353 25.4156C74.5428 25.337 74.3543 25.2487 74.1706 25.1512C73.9895 25.0557 73.8233 24.9343 73.6772 24.7909C73.5291 24.6451 73.4102 24.4726 73.3266 24.2824C73.2335 24.0591 73.189 23.8185 73.1961 23.5767C73.1956 23.338 73.2429 23.1017 73.3351 22.8815C73.4294 22.6586 73.5723 22.4597 73.7535 22.2992C73.9583 22.1225 74.1952 21.9869 74.4513 21.8997C74.925 21.7458 75.4287 21.708 75.9201 21.7894C76.0702 21.8121 76.2182 21.8468 76.3627 21.8932C76.4791 21.9252 76.5919 21.9689 76.6995 22.0238C76.7738 22.0591 76.8446 22.1013 76.911 22.1498C76.9481 22.176 76.9803 22.2084 77.0063 22.2457C77.0231 22.2747 77.035 22.3062 77.0416 22.3391C77.0487 22.3717 77.0533 22.4135 77.0598 22.4657C77.0678 22.5269 77.0715 22.5887 77.0709 22.6504C77.0714 22.7176 77.0677 22.7848 77.0598 22.8515C77.056 22.8996 77.0452 22.9468 77.0279 22.9918C77.0161 23.0233 76.9957 23.0509 76.9691 23.0715C76.9478 23.0873 76.9219 23.0957 76.8953 23.0956C76.8302 23.0872 76.7684 23.0615 76.7165 23.0212C76.6205 22.9619 76.5208 22.9087 76.4182 22.8619C76.2765 22.7989 76.1311 22.7449 75.9827 22.7C75.7984 22.6483 75.6076 22.6231 75.4162 22.625C75.2459 22.6217 75.076 22.6437 74.9122 22.6903C74.7811 22.7269 74.6587 22.7898 74.5525 22.875C74.4619 22.9534 74.3897 23.0508 74.341 23.1603C74.2939 23.2729 74.2701 23.3939 74.2712 23.516C74.2659 23.6765 74.3133 23.8342 74.4063 23.9651C74.5039 24.0923 74.6246 24.1999 74.7621 24.2824C74.9193 24.3805 75.0852 24.4642 75.2575 24.5324C75.4449 24.6035 75.6342 24.6786 75.8274 24.7563C76.0206 24.834 76.2106 24.9214 76.3999 25.0174C76.5824 25.1097 76.7511 25.227 76.9012 25.366C77.0477 25.507 77.1662 25.6745 77.2505 25.8595C77.3439 26.0761 77.3897 26.3103 77.3849 26.5462L77.381 26.5456ZM84.2665 28.2245C84.2679 28.2571 84.2579 28.2891 84.2384 28.3152C84.2159 28.3449 84.1853 28.3676 84.1503 28.3805C84.0964 28.4031 84.0394 28.4174 83.9812 28.4229C83.8909 28.4338 83.8 28.4386 83.709 28.4373C83.615 28.4387 83.521 28.4339 83.4277 28.4229C83.3695 28.4175 83.3125 28.4032 83.2586 28.3805C83.2238 28.367 83.1931 28.3445 83.1698 28.3152C83.1501 28.2892 83.1399 28.2572 83.1411 28.2245V24.6127C83.1491 24.3276 83.1219 24.0425 83.0602 23.7641C83.0141 23.5661 82.9339 23.3777 82.8232 23.2073C82.7219 23.0548 82.5815 22.9323 82.4165 22.8528C82.2373 22.7668 82.0403 22.7241 81.8414 22.7281C81.5356 22.7363 81.2403 22.842 80.9987 23.0297C80.6633 23.2812 80.3653 23.579 80.1135 23.9142V28.2225C80.1148 28.2553 80.1044 28.2875 80.0841 28.3133C80.0608 28.3425 80.0302 28.365 79.9954 28.3786C79.9415 28.4013 79.8845 28.4156 79.8263 28.421C79.7332 28.432 79.6394 28.4368 79.5456 28.4354C79.4547 28.4366 79.3637 28.4318 79.2734 28.421C79.2142 28.4152 79.1562 28.4009 79.1011 28.3786C79.0651 28.3674 79.0341 28.3444 79.0129 28.3133C78.9951 28.2865 78.9862 28.2547 78.9875 28.2225V19.068C78.9862 19.0344 78.9951 19.0012 79.0129 18.9727C79.0327 18.939 79.064 18.9138 79.1011 18.9015C79.1567 18.8813 79.2146 18.8679 79.2734 18.8617C79.3637 18.8509 79.4547 18.8461 79.5456 18.8473C79.6394 18.846 79.7332 18.8508 79.8263 18.8617C79.8842 18.8675 79.941 18.8809 79.9954 18.9015C80.0312 18.9162 80.062 18.9409 80.0841 18.9727C80.1045 19.0002 80.1148 19.0338 80.1135 19.068V22.7627C80.3906 22.4524 80.7201 22.1933 81.0868 21.997C81.3906 21.8358 81.7287 21.75 82.0725 21.747C82.428 21.7358 82.7812 21.8078 83.1039 21.9572C83.3717 22.0857 83.6048 22.2767 83.7835 22.514C83.9602 22.7593 84.0856 23.0377 84.1523 23.3326C84.2353 23.7049 84.2736 24.0857 84.2665 24.4671V28.2252V28.2245ZM87.441 28.2245C87.4422 28.2573 87.4318 28.2894 87.4116 28.3152C87.3891 28.3444 87.3591 28.367 87.3248 28.3805C87.2703 28.4028 87.2129 28.4171 87.1544 28.4229C87.0613 28.434 86.9675 28.4388 86.8737 28.4373C86.7825 28.4386 86.6914 28.4338 86.6008 28.4229C86.542 28.4175 86.4844 28.4032 86.4298 28.3805C86.3934 28.3694 86.3617 28.3464 86.3397 28.3152C86.3227 28.2881 86.3141 28.2565 86.3149 28.2245V22.0551C86.3152 22.024 86.3237 21.9936 86.3397 21.967C86.3607 21.9348 86.3927 21.9116 86.4298 21.9017C86.4845 21.8794 86.5421 21.8651 86.6008 21.8593C86.6914 21.8492 86.7825 21.8446 86.8737 21.8456C86.9674 21.8444 87.0612 21.849 87.1544 21.8593C87.2129 21.8654 87.2702 21.8797 87.3248 21.9017C87.3597 21.914 87.39 21.9368 87.4116 21.967C87.4306 21.9924 87.441 22.0233 87.441 22.0551V28.2252V28.2245ZM87.5683 19.9714C87.5913 20.1644 87.5376 20.3588 87.4188 20.5126C87.2518 20.6055 87.0638 20.6543 86.8727 20.6543C86.6816 20.6543 86.4937 20.6055 86.3267 20.5126C86.2104 20.3614 86.1579 20.1706 86.1805 19.9812C86.1576 19.7888 86.2107 19.5951 86.3286 19.4414C86.4881 19.3266 86.6843 19.2748 86.8796 19.2958C87.0715 19.2741 87.2647 19.3241 87.422 19.4362C87.5377 19.5879 87.5901 19.7786 87.5683 19.9682V19.9714ZM95.1568 25.0435C95.1628 25.5333 95.1039 26.0216 94.9819 26.4959C94.8842 26.8904 94.7113 27.2623 94.4727 27.5913C94.2529 27.8843 93.9674 28.1215 93.6391 28.2839C93.2824 28.4506 92.8924 28.5339 92.4987 28.5274C92.3297 28.5287 92.1611 28.5097 91.9967 28.4706C91.8387 28.4342 91.6863 28.3767 91.5437 28.2996C91.3871 28.2172 91.2396 28.1185 91.1037 28.0052C90.9575 27.8857 90.8047 27.7441 90.6415 27.5854V30.6724C90.6417 30.7065 90.632 30.7398 90.6135 30.7684C90.59 30.7969 90.56 30.8193 90.526 30.8337C90.4716 30.856 90.4142 30.8703 90.3556 30.8761C90.2621 30.8849 90.1682 30.8891 90.0743 30.8885C89.9834 30.8889 89.8925 30.8848 89.8021 30.8761C89.743 30.8707 89.6852 30.8564 89.6304 30.8337C89.5946 30.822 89.5634 30.7991 89.5416 30.7684C89.5252 30.739 89.5167 30.706 89.5168 30.6724V22.0558C89.5148 22.0217 89.5218 21.9877 89.537 21.9572C89.5565 21.9274 89.5848 21.9046 89.618 21.8919C89.6684 21.8706 89.722 21.8578 89.7766 21.854C89.8529 21.8457 89.9296 21.8417 90.0064 21.8423C90.0853 21.8415 90.1642 21.8455 90.2427 21.854C90.2954 21.8579 90.347 21.8707 90.3954 21.8919C90.4297 21.9048 90.4595 21.9275 90.4809 21.9572C90.4979 21.9871 90.5059 22.0214 90.5038 22.0558V22.8861C90.6724 22.7079 90.8526 22.5408 91.043 22.3861C91.2043 22.2503 91.3793 22.1317 91.5652 22.0323C91.7349 21.9395 91.9153 21.8681 92.1024 21.8194C92.2932 21.7698 92.4896 21.7455 92.6867 21.747C93.0816 21.735 93.4731 21.8249 93.8232 22.0081C94.1328 22.1786 94.3954 22.423 94.5876 22.7196C94.7934 23.0418 94.9399 23.3982 95.0204 23.7719C95.1143 24.1892 95.1603 24.6158 95.1574 25.0435H95.1568ZM93.97 25.1741C93.9706 24.8681 93.9473 24.5625 93.9002 24.2602C93.859 23.9866 93.7762 23.7209 93.6547 23.4723C93.5457 23.2546 93.3853 23.0669 93.1874 22.9253C92.9714 22.7837 92.7169 22.7123 92.4589 22.7209C92.3132 22.721 92.1684 22.743 92.0293 22.7862C91.8785 22.8361 91.735 22.9057 91.6024 22.9931C91.4382 23.1011 91.2852 23.2251 91.1455 23.3633C90.9654 23.5404 90.7975 23.7295 90.6428 23.9292V26.3837C90.8971 26.7103 91.1924 27.0028 91.5215 27.2538C91.7718 27.4456 92.0776 27.5512 92.3929 27.5548C92.6502 27.5613 92.9034 27.4893 93.1188 27.3485C93.3234 27.2069 93.4914 27.0187 93.6091 26.7995C93.7384 26.5587 93.831 26.3 93.8839 26.0318C93.943 25.7502 93.9723 25.4631 93.9714 25.1754L93.97 25.1741ZM102.484 25.0435C102.49 25.5333 102.432 26.0217 102.309 26.4959C102.212 26.8902 102.039 27.2621 101.801 27.5913C101.581 27.8845 101.295 28.1218 100.966 28.2839C100.609 28.4508 100.22 28.534 99.8261 28.5274C99.6575 28.5287 99.4894 28.5097 99.3254 28.4706C99.166 28.4348 99.0123 28.3772 98.8685 28.2996C98.712 28.2173 98.5647 28.1186 98.4292 28.0052C98.283 27.8857 98.1289 27.7441 97.9664 27.5854V30.6724C97.9664 30.7063 97.9569 30.7396 97.9389 30.7684C97.9154 30.797 97.8851 30.8194 97.8508 30.8337C97.7965 30.8563 97.739 30.8706 97.6804 30.8761C97.5869 30.8849 97.493 30.8891 97.3991 30.8885C97.3084 30.8889 97.2178 30.8848 97.1275 30.8761C97.0681 30.8703 97.0099 30.8561 96.9546 30.8337C96.9193 30.8216 96.8887 30.7988 96.8671 30.7684C96.8505 30.7391 96.8417 30.7061 96.8416 30.6724V22.0558C96.8401 22.0217 96.8471 21.9879 96.8619 21.9572C96.882 21.9275 96.9107 21.9048 96.9441 21.8919C96.9943 21.8705 97.0477 21.8577 97.1021 21.854C97.2566 21.8381 97.4123 21.8381 97.5669 21.854C97.6198 21.8578 97.6717 21.8706 97.7203 21.8919C97.7547 21.9048 97.7847 21.9275 97.8064 21.9572C97.8242 21.9868 97.8325 22.0213 97.8299 22.0558V22.8861C97.9986 22.7079 98.1787 22.5408 98.3691 22.3861C98.53 22.2497 98.705 22.1311 98.8913 22.0323C99.0634 21.9382 99.2465 21.8661 99.4364 21.8175C99.6269 21.7679 99.8231 21.7435 100.02 21.745C100.415 21.7329 100.807 21.8229 101.157 22.0061C101.466 22.1774 101.727 22.4229 101.917 22.7203C102.123 23.0425 102.269 23.3988 102.35 23.7726C102.444 24.1898 102.49 24.6165 102.487 25.0442L102.484 25.0435ZM101.298 25.1741C101.299 24.8681 101.276 24.5625 101.228 24.2602C101.187 23.9864 101.104 23.7207 100.982 23.4723C100.873 23.2546 100.713 23.0668 100.515 22.9253C100.299 22.7837 100.045 22.7123 99.787 22.7209C99.6411 22.721 99.4961 22.743 99.3568 22.7862C99.2058 22.8361 99.062 22.9056 98.9292 22.9931C98.7657 23.1021 98.6128 23.226 98.4723 23.3633C98.293 23.541 98.1253 23.73 97.9703 23.9292V26.3837C98.2247 26.7102 98.52 27.0026 98.8489 27.2538C99.0995 27.4457 99.4054 27.5512 99.721 27.5548C99.9781 27.5614 100.231 27.4894 100.446 27.3485C100.651 27.2069 100.819 27.0188 100.937 26.7995C101.066 26.5585 101.158 26.2998 101.211 26.0318C101.271 25.7503 101.3 25.4632 101.299 25.1754L101.298 25.1741ZM105.42 28.2252C105.421 28.2575 105.412 28.2893 105.393 28.3159C105.37 28.3447 105.339 28.3671 105.305 28.3812C105.251 28.4041 105.194 28.4184 105.135 28.4236C105.042 28.4346 104.947 28.4394 104.853 28.438C104.762 28.4384 104.671 28.4336 104.581 28.4236C104.522 28.418 104.464 28.4037 104.409 28.3812C104.374 28.3687 104.343 28.3459 104.321 28.3159C104.304 28.2885 104.296 28.2571 104.296 28.2252V22.0551C104.296 22.0241 104.305 21.9937 104.321 21.967C104.342 21.9359 104.373 21.9129 104.409 21.9017C104.464 21.8801 104.522 21.8659 104.581 21.8593C104.671 21.8492 104.762 21.8446 104.853 21.8456C104.947 21.8444 105.042 21.849 105.135 21.8593C105.193 21.8657 105.25 21.88 105.305 21.9017C105.34 21.9149 105.37 21.9375 105.393 21.967C105.411 21.9929 105.42 22.0236 105.42 22.0551V28.2252ZM105.551 19.9721C105.573 20.165 105.52 20.3591 105.402 20.5132C105.242 20.6269 105.046 20.6778 104.851 20.6562C104.659 20.6779 104.466 20.6279 104.309 20.5158C104.193 20.3646 104.14 20.174 104.162 19.9845C104.139 19.7919 104.193 19.5982 104.311 19.4446C104.478 19.3502 104.665 19.3001 104.857 19.2992C105.048 19.2982 105.236 19.3465 105.403 19.4394C105.52 19.5909 105.573 19.7817 105.551 19.9714V19.9721ZM112.779 28.2252C112.779 28.2578 112.769 28.2896 112.749 28.3159C112.727 28.3452 112.697 28.3678 112.662 28.3812C112.608 28.4038 112.551 28.4181 112.492 28.4236C112.402 28.4336 112.311 28.4384 112.22 28.438C112.126 28.4385 112.032 28.4337 111.938 28.4236C111.88 28.4185 111.823 28.4042 111.769 28.3812C111.734 28.3675 111.704 28.345 111.68 28.3159C111.661 28.2894 111.652 28.2576 111.652 28.2252V24.6127C111.659 24.3276 111.632 24.0427 111.572 23.7641C111.525 23.5662 111.444 23.3779 111.334 23.2073C111.233 23.0546 111.092 22.9321 110.927 22.8528C110.748 22.7668 110.551 22.724 110.352 22.7281C110.046 22.7367 109.751 22.8424 109.509 23.0297C109.174 23.2814 108.876 23.5792 108.624 23.9142V28.2225C108.625 28.2551 108.615 28.287 108.596 28.3133C108.572 28.3425 108.542 28.365 108.507 28.3786C108.453 28.4016 108.396 28.4159 108.338 28.421C108.244 28.432 108.15 28.4368 108.056 28.4354C107.965 28.4358 107.875 28.431 107.784 28.421C107.725 28.4154 107.667 28.4011 107.612 28.3786C107.577 28.3662 107.546 28.3435 107.523 28.3133C107.507 28.2857 107.498 28.2544 107.498 28.2225V22.0551C107.497 22.0226 107.504 21.9903 107.518 21.9611C107.54 21.933 107.568 21.9106 107.6 21.8958C107.65 21.8731 107.704 21.8598 107.759 21.8567C107.925 21.8407 108.092 21.8407 108.258 21.8567C108.312 21.8588 108.364 21.8721 108.413 21.8958C108.443 21.9116 108.47 21.9339 108.491 21.9611C108.507 21.9897 108.515 22.0223 108.514 22.0551V22.8724C108.804 22.5282 109.154 22.2388 109.546 22.0179C109.865 21.8445 110.221 21.7515 110.583 21.747C110.939 21.7368 111.293 21.8088 111.617 21.9572C111.884 22.086 112.116 22.277 112.294 22.514C112.471 22.7593 112.597 23.0377 112.664 23.3326C112.746 23.7028 112.785 24.0814 112.779 24.4606V28.2252ZM120.195 22.3358C120.202 22.4552 120.18 22.5746 120.129 22.6831C120.113 22.7141 120.089 22.7404 120.06 22.7593C120.031 22.7782 119.997 22.789 119.962 22.7908H119.085C119.236 22.9436 119.35 23.1292 119.418 23.3332C119.482 23.5347 119.514 23.7447 119.513 23.956C119.52 24.279 119.462 24.6 119.344 24.9006C119.236 25.1661 119.07 25.4038 118.858 25.5958C118.638 25.7898 118.382 25.9376 118.104 26.0305C117.793 26.135 117.466 26.1864 117.138 26.1826C116.897 26.1833 116.657 26.1497 116.426 26.0827C116.237 26.034 116.06 25.9489 115.904 25.8321C115.822 25.914 115.753 26.0088 115.701 26.1128C115.648 26.2271 115.622 26.3522 115.625 26.4783C115.626 26.5577 115.646 26.6357 115.685 26.7051C115.723 26.7745 115.779 26.833 115.846 26.8752C116.021 26.9884 116.225 27.0481 116.433 27.0469L118.036 27.1122C118.319 27.1196 118.599 27.162 118.872 27.2382C119.11 27.3065 119.334 27.417 119.533 27.5645C119.716 27.7 119.866 27.876 119.97 28.0789C120.078 28.2993 120.131 28.5424 120.126 28.7879C120.127 29.0674 120.066 29.3438 119.949 29.5973C119.824 29.8618 119.638 30.093 119.407 30.2716C119.129 30.4844 118.813 30.6411 118.476 30.7331C118.042 30.8513 117.592 30.9069 117.142 30.8983C116.717 30.9057 116.293 30.8634 115.878 30.7723C115.576 30.7064 115.288 30.5894 115.025 30.4263C114.82 30.2994 114.653 30.1189 114.542 29.9041C114.44 29.6982 114.389 29.4716 114.39 29.2422C114.392 29.0936 114.412 28.9458 114.45 28.8022C114.486 28.6602 114.542 28.524 114.616 28.3975C114.695 28.2645 114.79 28.1412 114.897 28.03C115.016 27.9056 115.144 27.7899 115.28 27.684C115.08 27.5879 114.909 27.439 114.787 27.2532C114.682 27.0836 114.627 26.888 114.628 26.6885C114.623 26.4301 114.681 26.1744 114.798 25.9437C114.909 25.727 115.051 25.5279 115.221 25.3529C115.078 25.183 114.964 24.9904 114.884 24.7831C114.798 24.535 114.756 24.2735 114.762 24.0108C114.758 23.687 114.819 23.3656 114.941 23.0656C115.051 22.7977 115.218 22.5568 115.431 22.3593C115.649 22.1624 115.905 22.0121 116.183 21.9174C116.491 21.812 116.815 21.7597 117.141 21.7627C117.316 21.7615 117.49 21.7713 117.663 21.792C117.813 21.8306 117.964 21.8598 118.117 21.8795H119.97C120.006 21.8791 120.042 21.8895 120.072 21.9095C120.103 21.9295 120.127 21.9581 120.141 21.9918C120.186 22.1014 120.206 22.2196 120.199 22.3378L120.195 22.3358ZM118.439 23.9599C118.45 23.7815 118.425 23.6027 118.366 23.434C118.307 23.2653 118.215 23.1099 118.095 22.9768C117.965 22.8536 117.811 22.7586 117.643 22.6977C117.474 22.6368 117.295 22.6114 117.116 22.623C116.921 22.6192 116.728 22.6568 116.548 22.7333C116.393 22.8018 116.255 22.905 116.146 23.0349C116.038 23.1654 115.957 23.3158 115.907 23.4775C115.855 23.6465 115.828 23.8226 115.828 23.9997C115.819 24.1743 115.845 24.349 115.904 24.5136C115.963 24.6782 116.054 24.8293 116.172 24.958C116.301 25.0794 116.453 25.1732 116.619 25.2336C116.785 25.294 116.961 25.3197 117.138 25.3092C117.336 25.3138 117.533 25.2773 117.716 25.2021C117.871 25.1357 118.009 25.035 118.12 24.9077C118.229 24.7806 118.311 24.6324 118.36 24.4723C118.412 24.3057 118.439 24.132 118.439 23.9573L118.439 23.9599ZM119.004 28.8473C119.008 28.7258 118.981 28.6054 118.924 28.4979C118.868 28.3903 118.784 28.2995 118.682 28.2343C118.416 28.0789 118.113 27.9996 117.805 28.0052L116.217 27.951C116.09 28.0493 115.971 28.1585 115.862 28.2774C115.777 28.3677 115.703 28.4663 115.638 28.5718C115.587 28.6579 115.55 28.7512 115.527 28.8486C115.507 28.9408 115.496 29.0349 115.497 29.1293C115.496 29.2738 115.538 29.4155 115.617 29.536C115.697 29.6565 115.812 29.7504 115.945 29.8055C116.34 29.9768 116.769 30.0552 117.199 30.0347C117.487 30.0413 117.775 30.0081 118.054 29.9361C118.254 29.8852 118.443 29.7966 118.609 29.675C118.74 29.5772 118.845 29.4476 118.912 29.2983C118.974 29.1562 119.006 29.0029 119.005 28.8479L119.004 28.8473Z" fill="#E3004F"/>
</g>
<defs>
<filter id="filter0_d" x="0" y="0" width="124.2" height="55.0146" filterUnits="userSpaceOnUse" color-interpolation-filters="sRGB">
<feFlood flood-opacity="0" result="BackgroundImageFix"/>
<feColorMatrix in="SourceAlpha" type="matrix" values="0 0 0 0 0 0 0 0 0 0 0 0 0 0 0 0 0 0 127 0" result="hardAlpha"/>
<feOffset dy="4"/>
<feGaussianBlur stdDeviation="2"/>
<feComposite in2="hardAlpha" operator="out"/>
<feColorMatrix type="matrix" values="0 0 0 0 0 0 0 0 0 0 0 0 0 0 0 0 0 0 0.25 0"/>
<feBlend mode="normal" in2="BackgroundImageFix" result="effect1_dropShadow"/>
<feBlend mode="normal" in="SourceGraphic" in2="effect1_dropShadow" result="shape"/>
</filter>
</defs>
</svg>
