<svg width="22" height="23" viewBox="0 0 22 23" fill="none" xmlns="http://www.w3.org/2000/svg">
<path d="M11.2215 0.449219C5.45053 0.449219 0.712891 4.94778 0.712891 10.52C0.712891 13.4887 2.08777 16.1263 4.21576 17.9636V22.0138L8.1022 20.0706C9.09001 20.3683 10.1234 20.5907 11.2215 20.5907C16.9925 20.5907 21.7301 16.0922 21.7301 10.52C21.7301 4.94778 16.9925 0.449219 11.2215 0.449219ZM11.2215 2.20066C16.0896 2.20066 19.9787 5.93647 19.9787 10.52C19.9787 15.1035 16.0896 18.8393 11.2215 18.8393C10.175 18.8393 9.17583 18.6405 8.23881 18.3191L7.88327 18.2097L5.9672 19.1677V17.1973L5.63881 16.9232C3.69559 15.3916 2.46433 13.0963 2.46433 10.52C2.46433 5.93647 6.35339 2.20066 11.2215 2.20066ZM10.2363 7.75621L4.95487 13.3389L9.689 10.7118L12.2067 13.4212L17.4339 7.75534L12.8083 10.3562L10.2363 7.75621Z" fill="black"/>
</svg>
