<svg width="20" height="21" viewBox="0 0 20 21" fill="none" xmlns="http://www.w3.org/2000/svg">
<path fill-rule="evenodd" clip-rule="evenodd" d="M5.665 2C3.135 2 1.5 3.733 1.5 6.416V14.584C1.5 17.267 3.135 19 5.665 19H14.333C16.864 19 18.5 17.267 18.5 14.584V6.416C18.5 3.733 16.864 2 14.334 2H5.665ZM14.333 20.5H5.665C2.276 20.5 0 18.122 0 14.584V6.416C0 2.878 2.276 0.5 5.665 0.5H14.334C17.723 0.5 20 2.878 20 6.416V14.584C20 18.122 17.723 20.5 14.333 20.5Z" fill="#130F26"/>
<path fill-rule="evenodd" clip-rule="evenodd" d="M13.9484 11.5137C13.3954 11.5137 12.9434 11.0667 12.9434 10.5137C12.9434 9.96067 13.3864 9.51367 13.9384 9.51367H13.9484C14.5014 9.51367 14.9484 9.96067 14.9484 10.5137C14.9484 11.0667 14.5014 11.5137 13.9484 11.5137Z" fill="#130F26"/>
<path fill-rule="evenodd" clip-rule="evenodd" d="M9.93857 11.5137C9.38557 11.5137 8.93457 11.0667 8.93457 10.5137C8.93457 9.96067 9.37657 9.51367 9.92957 9.51367H9.93857C10.4916 9.51367 10.9386 9.96067 10.9386 10.5137C10.9386 11.0667 10.4916 11.5137 9.93857 11.5137Z" fill="#130F26"/>
<path fill-rule="evenodd" clip-rule="evenodd" d="M5.9298 11.5137C5.3768 11.5137 4.9248 11.0667 4.9248 10.5137C4.9248 9.96067 5.3678 9.51367 5.9208 9.51367H5.9298C6.4828 9.51367 6.9298 9.96067 6.9298 10.5137C6.9298 11.0667 6.4828 11.5137 5.9298 11.5137Z" fill="#130F26"/>
</svg>
