<svg version="1.1" id="Слой_1" xmlns="http://www.w3.org/2000/svg" x="0" y="0" viewBox="0 0 153.1 243.8" xml:space="preserve"><style>.st0{fill:#1d71b8}.st2{fill:#81ccda}.st4{fill:#f3911c}.st7{fill:#c4acd4}.st8{fill:#fff}.st10{fill:#36a9e1}</style><path class="st0" d="M142.2 25.6h-1.7v-7.4h-2.3v-1.3h6.4v1.3h-2.3l-.1 7.4zm.1 12.3h-1.6v-7.5h-2.2v-1.3h6v1.3h-2.2v7.5z"/><path class="st2" d="M120.2 48.3h-.5l1.4-4h.5l-1.4 4zm3.2-1.4h-.3v-.2c0-.4.1-.8.4-.8l-.1.7h.5l.3-1.3h-.2c-.8 0-1.2.6-1.2 1.4v.3h.2l.4 1.3h.7v-.4h-.4l-.3-1zm-.8.9v-2.4h-.8v.4h.3v2h-.3v.4h1.1v-.4h-.3zm2.2-2.4h1.8v.4h-.3v2h.3v.4h-1.1v-.4h.3v-2h-.3v.3c0 .8-.2 2.2-1 2.2h-.3l.2-1h.5l-.1.5c.4-.2.4-1.2.4-1.6v-.4h-.4v-.4zm3.9 2.5v-1.2c0-.8-.4-1.3-1.2-1.3h-.4v1.2h.5v-.8c.5 0 .6.4.6.8v.2c-.7 0-1.3.3-1.3 1 0 .3.2.6.6.6.3 0 .5-.2.7-.5v.4h.8v-.4h-.3zm-.5-.6c0 .2-.2.6-.6.5-.1 0-.2-.1-.2-.2 0-.2.4-.5.8-.5v.2zm.9-.3c0-.8.5-1.6 1.4-1.6h.3l-.2 1.2h-.5l.2-.7c-.4.1-.6.6-.6 1v.1c0 .5.2.9.8.9h.2v.4c-.1 0-.2.1-.4.1-.7 0-1.2-.6-1.2-1.4zm1.9-1.6h.8v2.2l.6-2.2h.9v.4h-.2v2h.3v.4h-.8V46l-.6 2.2h-.6v-2.4h-.3l-.1-.4zm3.4 1.1c0 .3.1.4.2.4.3 0 .4-.2.4-.5v-.6h-.3v-.4h1.1v.4h-.3v2h.3v.4h-1.1v-.4h.3v-.9c-.1.2-.4.4-.6.4-.4 0-.6-.2-.6-.7v-.7h-.4v-.4h.9v1h.1zm3.8 1.4h.3v.4h-.8V47h-.7v.9h.3v.4h-1.1v-.4h.3v-2h-.3v-.4h.8v1.1h.7v-.7h-.3v-.4h1.1v.4h-.3v2zm.5-2.5h.8v2.2l.6-2.2h.9v.4h-.3v2h.3v.4h-.8V46l-.6 2.2h-.6v-2.4h-.3v-.4zm4.1-1.1c0 .2-.1.3-.1.3-.2 0-.3-.1-.3-.3h-.5c0 .4.3.7.7.7s.7-.3.7-.7h-.5zm.9 1.5v-.4h-.9l-.6 2.2v-2.2h-.8v.4h.3v2.4h.6l.6-2.2v2.2h.8v-.4h-.3v-2h.3z"/><path d="M123.7 14.2c2.8-5.7 7.4-5.7 10.2 0" fill="none" stroke="#1d71b8" stroke-width="3" stroke-linecap="round" stroke-miterlimit="10"/><path class="st0" d="M117.2 21.2h-.8v-.3c0-1.5.6-2.7 1.4-2.9l-.3 1.8h1l.6-2.9c-.1-.1-.4-.1-.5-.1-1.9 0-3.1 1.8-3.1 4.2v.6h.6l1.2 4h1.7v-1h-.8l-1-3.4zm-2.2 3.4v-6.8h.7v-1h-2.5v1h.7v6.8h-.7v1h2.6v-1h-.8zm7.7-1.6l-3-6.2h1.6l2.1 4.4 1.7-4.4h1.4l-2.6 6.6c-.3.8-.7 1.4-1 1.7s-.9.4-1.5.4h-.6v-1.4h.6c.4 0 .6-.1.8-.2s.3-.4.4-.7l.1-.2zm3.4 2.6h-1.4l2.8-8.7h2l2.8 8.7h-1.7l-2.2-7.3h-.1l-2.2 7.3zm13-4.3c-.3-.4-.6-.7-1-.9-.4-.1-1-.2-1.8-.2h-1.4v-3.3h-1.5v8.7h3.2c1 0 1.7-.3 2.2-.8.5-.6.7-1.2.7-2 0-.5-.1-1.1-.4-1.5zm-2.6 2.9h-1.6v-2.8h1.6c.9 0 1.4.5 1.4 1.4 0 .9-.4 1.4-1.4 1.4zm-23.1 13.7v-8.7h5.7v8.7h-1.4v-7.4h-2.9v7.4h-1.4zm17.1-4.4h-.8v-.3c0-1.5.5-2.7 1.4-2.9l-.3 1.8h1.1l.7-2.9c-.1-.1-.4-.1-.5-.1-2.1 0-3.3 1.8-3.3 4.2v.6h.6l1.3 4h1.8v-1h-.9l-1.1-3.4zm-1.4-3.4v-1h-2.7v1h.8v6.8h-.8v1h2.7v-1h-.8v-6.8h.8zm9.3-.9h.2v1.3h-.2zm.3 7.4v1.3h-5.4v-8.7h3.9v1.3h-2.4v2.4h3.1v1.3h-3.1v2.4zm-13.1.2l-1.7-7.7h-2.7v1h.6l-1.4 6.8h-.8v1h2.8v-1h-.7l.3-1.6h2l.3 1.6h-.7v.9h2.8v-1h-.8zm-3.4-2.5l.7-4h.1l.8 4h-1.6z"/><path class="st4" d="M96.8 139.3l-24.3 14.1v-28.1l24.3-14.1z"/><circle class="st2" cx="34.9" cy="150.2" r="1.3"/><circle class="st2" cx="24.9" cy="163.7" r="1.3"/><circle class="st2" cx="25.9" cy="56.9" r="1.3"/><circle class="st2" cx="104" cy="194.6" r="1.3"/><circle class="st2" cx="114.5" cy="99.1" r="1.3"/><path class="st0" d="M96.6 82.6L68.1 68.9V97l28.6 13.9-.1-28.3z"/><path d="M62.8 100.5c-3.8 1.2 48.3-2.4 5.3 27.6" fill="none" stroke="#f3911c" stroke-width="1.053" stroke-miterlimit="10"/><path class="st4" d="M50.9 105.2V82.5l3-1.4v-3.4l-10.7 5.4-.8.4.5 3 .3-.1 3.2-1.5v22.4l-3.2 1.5-.3.1.3 1.6.2 1 10.5-5 .2-2.7-3.2 1.4zm8.8-15l-3.2 1.4v-1.1c0-4.7 2.2-9.9 5.8-12.1L61 84.9l4.4-1.9 2.5-12.3c-8.1 4-15.3 14-15.3 21.8v2.1l2.7-1.1 4.7 10.1 5.6-2.7 2.1-1 .2-2.4-3.9 1.9-4.3-9.2z"/><path class="st0" d="M42.3 58.9c4.1 0 6.7 4.5 4.7 8.1l-4.7 8-4.7-8.1c-2-3.5.6-8 4.7-8z"/><linearGradient id="SVGID_1_" gradientUnits="userSpaceOnUse" x1="14.549" y1="155.75" x2="43.167" y2="155.75" gradientTransform="matrix(1 0 0 -1 0 246)"><stop offset="0" stop-color="#fff"/><stop offset="1" stop-color="#36a9e1"/></linearGradient><path fill="url(#SVGID_1_)" d="M14.5 97.8l28.7 14.5V82.9L14.5 68.2z"/><path class="st7" d="M73 125l-1.2 51.5-28.6-30.9v-33.3z"/><path transform="rotate(-67.549 103.942 88.181)" class="st8" d="M103.7 86.1h.5v4.2h-.5z"/><path class="st7" d="M105.6 81l-2.1.1 23-10.6-.2 10.5z"/><path d="M66.4 134.9c-2.9 2.1-6.7 2.8-10.4 1.6-3.6-1.2-6.3-4.1-7.3-7.5 2.9-2.1 6.7-2.8 10.4-1.6 3.6 1.2 6.3 4.1 7.3 7.5z" fill="#fff" stroke="#1d71b8" stroke-width=".919" stroke-miterlimit="10"/><circle class="st0" cx="57.6" cy="132" r="2.3"/><path class="st10" d="M52.8 116.3s-.6-.2-.7 1.8c-.2 2-5.6 1.7-5.6 1.7s1.7-.2 1.7-2.3c0-2.1 1.1-2.8 1.1-2.8l3.5 1.6z"/><path class="st0" d="M54.1 113.6l-.6-1.1c0-.1 0-.2.1-.2l10.1-5 8-3.9c.2-.1.3.2.2.3l-7.4 4.8-9.4 6.1c-.1.1-.2 0-.2-.1l-.8-.9z"/><path class="st4" d="M76.2 109.3s1.6-3.4 1.7-1.6-.9 2.4-.9 2.4 7.7 1.4 3.1 3.6c-4.5 2.2-4.6-.5-4.6-.5s-.9 3.3-1.3 2.2.6-3 .6-3-3.6 2.4-2.9.8 2.3-2.3 2.3-2.3.4-4.2 2-1.6z"/><path class="st8" d="M47.3 138.5c-1.6 0-2.6-1.7-1.8-3.1l1.8-3.1 1.8 3.1c.8 1.4-.2 3.1-1.8 3.1z"/><path class="st7" d="M72.2 133.4s3.8-4.3 5.3-1.5c1.4 2.9 2.3 3.1 0 6.6-2.3 3.4-3.6 2.6-3.1 5.3.4 2.7-2.1 5.4-3.2 4.1-1.1-1.3 1-14.5 1-14.5z"/><path class="st0" d="M96.7 82.7v28.1h16.5c-5.6-.2-1.8-5.7-11.5-10.6 2.2-.5 12.3-5.6 14.8-17.5H96.7z"/><path class="st2" d="M113.7 83.7s.9 7.7-13.4 15.5c0 0 9.9-8.6 13.4-15.5z"/><path class="st2" d="M105.7 89.7s1.3 4-5.5 9c.1 0 4.4-5.2 5.5-9z"/><path class="st7" d="M44.3 120.8s-4.4 8.3-6.2 9-2.4 1.6-2.4 2.7 1.8 2.5 3.4 2.5 3.8-.3 4.2-.7.2 1.3.8 1.4c.6.1.8-.5.8-.5l-.6-14.4zm35.3 55h2.6v-20.3h-7.6v20.3h2.6v2.9h-9.5v-2.9h2.7v-20.3h-2.7v-2.9h21.4v2.9h-2.7v20.3h2.7v2.9h-9.5v-2.9z"/><path d="M75.3 134.5s2.4-.7 1.4.9c-.9 1.6-2.8 3.6-3.2 3.7s-1.1-.2-1.1-.2" fill="none" stroke="#fff" stroke-width=".919" stroke-miterlimit="10"/><path class="st2" d="M96.8 49.3l-1.2.8V39.7l1.2-.8z"/><path class="st4" d="M96.5 35.8s.2 18.4.2 18.6c0 .2-.3.5-.4.7-.3.9-.8 1.7-1.3 2.1l-11.6 7.6-9.8 6.4-3.6-1.8-1.9-.4V51.2c0-1.4.7-2.8 1.6-3.6.2-.1.3-.3.5-.3l.3-.2 3.4-1.8.7-.4 1.9-1 .8-.5 3.2-1.6.5-.3 2.3-1.2.7-.4h.1l2-1 3.4-1.8.2-.1 1.5-.8.7-.3 2.4-1.2.6-.3h.1c.1 0 .2-.1.3-.1.7-.3 1.2.4 1.2 1.5z"/><path class="st4" d="M94.2 56.9c.8-.6 1.4-2.1 1.4-3.4V35.8c0-1.3-.6-2.1-1.4-1.6l-10.7 6v24.2l10.7-7.5zM81.4 32.8c0 4.4-2.4 9.3-5.4 11-3.1 1.8-5.8-.6-5.8-5.3s2.6-9.7 5.8-11.2c3.1-1.4 5.4 1.1 5.4 5.5z"/><path class="st4" d="M81.4 32.8c0-4.4-2.4-6.9-5.4-5.4v16.4c3.1-1.7 5.4-6.6 5.4-11z"/><path class="st4" d="M83.5 30.9c-.2-4.8-2.5-7.8-5.8-7.4-.5.1-1.1.2-1.7.5-4.4 2-8.2 9.1-8.2 15.8 0 3.5 1 6 2.7 7.3 1.5 1.1 3.4 1.2 5.5 0 1.9-1.1 3.6-3.1 4.9-5.6 1.4-2.6 2.3-5.7 2.5-8.7v-1c.1-.3.1-.6.1-.9zM76 25.7c.2-.1.3-.1.5-.1.3 0 .5.1.7.3.2.2.4.6.5 1v1c-.2 1.3-.9 2.5-1.8 2.9-1 .5-1.8-.3-1.8-1.8 0-.2 0-.5.1-.7.3-1 1-2.2 1.8-2.6zm-6 7.8c.4-1.3 1.4-2.3 2.2-2.4.2 0 .3 0 .5.1.9.3 1.2 1.9.7 3.5s-1.7 2.7-2.7 2.4c-.1 0-.3-.1-.4-.2-.6-.6-.8-2-.3-3.4zm0 10.3c-.5-.9-.3-2.4.3-3.7.1-.2.2-.4.4-.6 1-1.3 2.2-1.5 2.7-.4.6 1.1.2 3-.7 4.3-.1.2-.3.3-.4.5-.8.8-1.9.9-2.3-.1zm6.9.5c-.1.1-.1.2-.2.2-.2.3-.5.5-.8.7-.6.3-1.1.2-1.4-.3-.1-.1-.2-.3-.2-.5-.1-.2-.1-.4-.1-.7 0-1.4.8-2.9 1.7-3.4s1.6.2 1.6 1.5v.8c0 .2-.1.5-.2.8 0 .3-.2.6-.4.9zm4.7-6.9c-.4 1.3-1.2 2.2-1.9 2.2h-.4c-.8-.3-1.1-1.7-.6-3.2s1.5-2.5 2.3-2.2c.1 0 .2.1.3.2.6.6.7 1.8.3 3zm-.3-5.9c-.1.1-.1.2-.2.3-.8 1.2-1.9 1.3-2.4.2-.6-1-.3-2.8.6-3.9.1-.1.2-.3.3-.4.7-.7 1.6-.7 2 .2.6.9.4 2.4-.3 3.6z"/><path class="st4" d="M77.4 34.9c0 1.1-.6 2.3-1.4 2.7s-1.4-.2-1.4-1.3.6-2.4 1.4-2.7c.8-.4 1.4.2 1.4 1.3z"/><path class="st4" d="M83.5 30.9c-.3-4.7-2.6-7.7-5.8-7.4-.5.1-1.1.2-1.7.5v1.7c.2-.1.3-.1.5-.1.3 0 .5.1.7.3.2.2.4.6.5 1V28c-.1 1.3-.9 2.6-1.8 3v9.3c.9-.5 1.6.2 1.6 1.5 0 .2 0 .5-.1.7 0 .2-.1.5-.2.7-.1.3-.3.6-.4.9-.1.1-.1.2-.2.2-.2.3-.5.6-.8.8V47c2-1.1 3.7-3.2 5-5.7 1.4-2.6 2.3-5.7 2.4-8.6v-1c.3-.2.3-.5.3-.8zm-1.8-3c.5.9.2 2.5-.4 3.6-.1.1-.1.2-.2.3-.8 1.2-1.9 1.3-2.4.2-.6-1-.3-2.8.6-3.9.1-.1.2-.3.3-.4.8-.7 1.7-.7 2.1.2zm-2 11.7h-.4c-.8-.3-1.1-1.7-.6-3.2s1.5-2.5 2.3-2.2c.1 0 .2.1.3.2.6.6.7 1.8.3 3-.4 1.3-1.2 2.2-1.9 2.2z"/><path class="st4" d="M77.4 34.9c0-1.1-.6-1.7-1.4-1.3v4.1c.8-.5 1.4-1.7 1.4-2.8zm17.7-9.1c0 4.1-2 8.5-4.6 9.9-2.7 1.5-4.9-.8-4.9-5.1s2.2-8.8 4.9-10.1c2.5-1.1 4.6 1.2 4.6 5.3z"/><path class="st4" d="M95.1 25.8c0-4.1-2-6.4-4.6-5.2v15.1c2.5-1.4 4.6-5.8 4.6-9.9z"/><path class="st4" d="M90.5 17.5c-3.7 1.7-6.9 8.1-6.9 14.2 0 3.4 1 5.9 2.5 7l.1.1c1.2.8 2.7.9 4.2 0 1.4-.8 2.7-2.3 3.8-4.1.1-.2.2-.4.4-.7 1.4-2.7 2.3-6 2.3-9.2 0-5.5-2.9-8.9-6.4-7.3zM93.6 32c0 .1 0 .1 0 0h-.4c-.7-.3-.9-1.6-.5-3s1.3-2.2 2-1.9c.1 0 .2.1.3.2.4.5.5 1.7.2 2.8-.3 1-1 1.8-1.6 1.9zm-.4-10.6c.1-.1.2-.3.3-.4.6-.6 1.3-.5 1.6.3.3.8.2 2.1-.2 3-.1.2-.2.4-.3.5-.7 1-1.6 1.1-2.1.1-.3-.9 0-2.5.7-3.5zm-2.7-2.2c.2-.1.4-.1.6-.1.1 0 .3.1.4.2.2.2.4.5.4.9 0 .2.1.4.1.6-.1 1.3-.7 2.7-1.5 3.1h-.1c-.8.3-1.4-.4-1.4-1.7 0-.3 0-.5.1-.8.2-.9.8-1.9 1.4-2.2zm-5.1 6.9c.4-1.2 1.2-2.1 1.9-2.1.1 0 .3 0 .4.1.8.3 1 1.8.6 3.2-.5 1.5-1.5 2.4-2.3 2.1-.1-.1-.2-.1-.3-.2-.6-.6-.7-1.9-.3-3.1zm-.1 9.4c-.5-.9-.2-2.4.4-3.6.1-.1.2-.3.2-.4.8-1.1 1.8-1.2 2.3-.2s.2 2.8-.6 3.9c-.1.1-.2.3-.3.4-.7.8-1.6.8-2-.1zm4.4 1.5c-.1 0-.1-.1-.2-.2-.1-.2-.2-.4-.3-.7 0-.2-.1-.4-.1-.6 0-1.3.6-2.6 1.4-3 .2-.1.3-.1.4-.1.6-.1 1 .5 1 1.6 0 .2-.1.5-.1.7-.1.4-.2.7-.3 1-.1.2-.1.3-.2.4-.2.4-.5.7-.7.8h-.1c-.4.3-.6.2-.8.1z"/><path class="st4" d="M91.6 27.6c0 1-.5 2.1-1.2 2.5-.6.3-1.2-.2-1.2-1.3 0-1 .5-2.1 1.2-2.5.7-.3 1.2.2 1.2 1.3z"/><path class="st4" d="M90.4 17.6v1.6c.3-.1.5-.1.7-.1.1 0 .3.1.4.2.2.2.3.5.4.9v.5c0 1.2-.6 2.6-1.4 3 0 0-.1 0-.1.1v8.6h.1c.2-.1.3-.1.4-.1.5 0 .9.6.9 1.6 0 .2 0 .5-.1.8-.1.3-.2.7-.3 1-.1.2-.1.3-.2.4-.2.4-.5.6-.8.8v1.8c1.4-.8 2.7-2.2 3.7-4 .1-.2.3-.5.4-.7 1.4-2.7 2.3-6 2.3-9.2 0-5.5-2.8-8.9-6.4-7.2zm4.8 3.7c.3.8.2 2.1-.2 3-.1.2-.2.4-.3.5-.7 1-1.6 1.1-2.1.1-.4-1-.1-2.6.6-3.6.1-.1.2-.3.3-.4.7-.5 1.4-.4 1.7.4zM93.6 32c0 .1 0 .1 0 0h-.4c-.7-.3-.9-1.6-.5-3s1.3-2.2 2-1.9c.1 0 .2.1.3.2.4.5.5 1.7.2 2.8-.3 1-1 1.8-1.6 1.9z"/><path class="st4" d="M91.6 27.6c0-1-.5-1.6-1.2-1.3V30c.7-.3 1.2-1.4 1.2-2.4z"/><path class="st2" d="M96.8 38.9v10.4l3.5 1.4V33.1z"/><path class="st10" d="M73 68.5v-7.7l8.4-4.6v6.2z"/><path class="st2" d="M75.1 52.8c0 .4-.2.9-.5 1.1l-1 .6c-.3.2-.6 0-.6-.5v-1.5c0-.4.2-1 .6-1.1l1-.6c.3-.2.5 0 .5.5v1.5zm3.4-2.1c0 .4-.2.9-.5 1.1l-1 .6c-.3.2-.5 0-.5-.5v-1.4c0-.4.2-.9.5-1.1l1-.6c.3-.2.5 0 .5.5v1.4zm3.4-2c0 .4-.2.9-.5 1.1l-.9.6c-.3.2-.5 0-.5-.5v-1.4c0-.4.2-.9.5-1.1l.9-.6c.3-.2.5 0 .5.5v1.4z"/><path class="st8" d="M93.7 52.3c0 .7-.4 1.5-.8 1.8s-.8 0-.8-.8c0-.7.4-1.5.8-1.8.4-.3.8.1.8.8z"/><path class="st10" d="M125.1 68.6L96.7 82.7 68.1 69l5.4-3.1.4-.2 7.5-3.7.4-.2 1.8-.9.3-.2L95.5 55l.3-.1.7-.4h.1c-1.3 13.3 1.4 23.4 28.5 14.1z"/><path d="M52.8 116.3l-3.5-1.7c7.9-3.8 3.5 1.7 3.5 1.7z" fill="#69c3c6"/><path class="st7" d="M28.8 78.7v-.6h-.6v16.2c-.2-.2-.5-.4-.8-.5-.5-.2-1-.3-1.5-.3-1 0-2 .3-2.9.7-.9.5-1.6 1.2-2 2s-.6 1.7-.1 2.5c.5.7 1.6 1 2.5 1.1 1 0 2-.2 2.9-.7s1.6-1.1 2-1.9c.2-.4.4-.8.4-1.3V82.2c1.4 2.8 6.5.1 6.9 8.3.7-12.5-2.9-6.3-6.8-11.8z"/><circle class="st8" cx="42.3" cy="64" r="3"/><path d="M90.3 117.2c6.3.1 6 20.1 12.3 20.2 6.3.1 6.6-19.9 12.9-19.8s6 20.1 12.3 20.2c6.3.1 6.6-19.9 12.9-19.8s6 20.1 12.3 20.2" fill="none" stroke="#f3911c" stroke-width="3" stroke-linecap="round" stroke-linejoin="round" stroke-miterlimit="10"/><path class="st8" d="M52.7 31.1h1.8l-.9 2.1-.9 2-.9-2-1-2.1z"/><path class="st8" d="M52.7 27.2h1.9l-1 2-.9 2-.9-2-.9-2z"/><path class="st8" d="M52.7 23.1h1.9l-1 2-.9 2.1-.9-2.1-.9-2zm3.7 0h1.8l-.9 2-.9 2.1-.9-2.1-.9-2z"/><path class="st7" d="M43.2 21.9l3.2-7.5v8.2l6-5.5-3.4 7.4 7.8-2.6-6.2 5.5 8.2.7-7.8 2.5 7.1 4-8.1-.9 4.8 6.6-7-4.2 1.7 8-4.7-6.6-1.6 8-1.7-8-4.7 6.6 1.8-8-7.1 4.2 4.9-6.6-8.2.9 7.2-4-7.8-2.5 8.1-.7-6.1-5.5 7.7 2.6-3.4-7.4 6.1 5.5-.1-8.2z"/><path class="st2" d="M68.1 69l28.7 42.2-.1-28.5z"/></svg>