<?xml version="1.0" encoding="utf-8"?>
<!-- Generator: Adobe Illustrator 26.0.1, SVG Export Plug-In . SVG Version: 6.00 Build 0)  -->
<svg version="1.1" id="Слой_1" xmlns="http://www.w3.org/2000/svg" xmlns:xlink="http://www.w3.org/1999/xlink" x="0px" y="0px"
	 viewBox="0 0 153.1 243.8" style="enable-background:new 0 0 153.1 243.8;" xml:space="preserve">
<style type="text/css">
	.st0{fill:#1D71B8;}
	.st1{fill:none;}
	.st2{fill:#81CCDA;}
	.st3{fill:none;stroke:#1D71B8;stroke-width:3;stroke-linecap:round;stroke-miterlimit:10;}
	.st4{fill:#F3911C;}
	.st5{fill:none;stroke:#F3911C;stroke-width:1.053;stroke-miterlimit:10;}
	.st6{fill:url(#SVGID_1_);}
	.st7{fill:#C4ACD4;}
	.st8{fill:#FFFFFF;}
	.st9{fill:#FFFFFF;stroke:#1D71B8;stroke-width:0.9191;stroke-miterlimit:10;}
	.st10{fill:#36A9E1;}
	.st11{fill:none;stroke:#FFFFFF;stroke-width:0.9191;stroke-miterlimit:10;}
	.st12{fill:#69C3C6;}
	.st13{fill:none;stroke:#F3911C;stroke-width:3;stroke-linecap:round;stroke-linejoin:round;stroke-miterlimit:10;}
</style>
<g>
	<path class="st0" d="M142.2,25.6h-1.7v-7.4h-2.3v-1.3h6.4v1.3h-2.3L142.2,25.6L142.2,25.6z"/>
	<path class="st0" d="M142.3,37.9h-1.6v-7.5h-2.2v-1.3h6v1.3h-2.2V37.9z"/>
	<g>
		<path class="st2" d="M120.2,48.3h-0.5l1.4-4h0.5L120.2,48.3z"/>
		<path class="st2" d="M123.4,46.9h-0.3v-0.2c0-0.4,0.1-0.8,0.4-0.8l-0.1,0.7h0.5l0.3-1.3H124c-0.8,0-1.2,0.6-1.2,1.4V47h0.2
			l0.4,1.3h0.7v-0.4h-0.4L123.4,46.9z M122.6,47.8v-2.4h-0.8v0.4h0.3v2h-0.3v0.4h1.1v-0.4H122.6z"/>
		<path class="st2" d="M124.8,45.4h1.8v0.4h-0.3v2h0.3v0.4h-1.1v-0.4h0.3v-2h-0.3v0.3c0,0.8-0.2,2.2-1,2.2c-0.1,0-0.3,0-0.3,0l0.2-1
			h0.5l-0.1,0.5c0.4-0.2,0.4-1.2,0.4-1.6v-0.4h-0.4V45.4z"/>
		<path class="st2" d="M128.7,47.9v-1.2c0-0.8-0.4-1.3-1.2-1.3h-0.4v1.2h0.5v-0.8c0.5,0,0.6,0.4,0.6,0.8v0.2c-0.7,0-1.3,0.3-1.3,1
			c0,0.3,0.2,0.6,0.6,0.6c0.3,0,0.5-0.2,0.7-0.5v0.4h0.8v-0.4H128.7z M128.2,47.3c0,0.2-0.2,0.6-0.6,0.5c-0.1,0-0.2-0.1-0.2-0.2
			c0-0.2,0.4-0.5,0.8-0.5V47.3z"/>
		<path class="st2" d="M129.1,47L129.1,47c0-0.8,0.5-1.6,1.4-1.6h0.3l-0.2,1.2h-0.5l0.2-0.7c-0.4,0.1-0.6,0.6-0.6,1V47
			c0,0.5,0.2,0.9,0.8,0.9c0.1,0,0.2,0,0.2,0v0.4c-0.1,0-0.2,0.1-0.4,0.1C129.6,48.4,129.1,47.8,129.1,47z"/>
		<path class="st2" d="M131,45.4h0.8v2.2l0,0l0.6-2.2h0.9v0.4h-0.2v2h0.3v0.4h-0.8V46l0,0l-0.6,2.2h-0.6v-2.4h-0.3L131,45.4
			L131,45.4z"/>
		<path class="st2" d="M134.4,46.5c0,0.3,0.1,0.4,0.2,0.4c0.3,0,0.4-0.2,0.4-0.5v-0.6h-0.3v-0.4h1.1v0.4h-0.3v2h0.3v0.4h-1.1v-0.4
			h0.3v-0.9c-0.1,0.2-0.4,0.4-0.6,0.4c-0.4,0-0.6-0.2-0.6-0.7v-0.7h-0.4v-0.4h0.9v1H134.4z"/>
		<path class="st2" d="M138.2,47.9h0.3v0.4h-0.8V47H137v0.9h0.3v0.4h-1.1v-0.4h0.3v-2h-0.3v-0.4h0.8v1.1h0.7v-0.7h-0.3v-0.4h1.1v0.4
			h-0.3V47.9z"/>
		<path class="st2" d="M138.7,45.4h0.8v2.2l0,0l0.6-2.2h0.9v0.4h-0.3v2h0.3v0.4h-0.8V46l0,0l-0.6,2.2H139v-2.4h-0.3L138.7,45.4
			L138.7,45.4z"/>
		<path class="st2" d="M142.8,44.3c0,0.2-0.1,0.3-0.1,0.3c-0.2,0-0.3-0.1-0.3-0.3h-0.5c0,0.4,0.3,0.7,0.7,0.7s0.7-0.3,0.7-0.7H142.8
			z M143.7,45.8v-0.4h-0.9l-0.6,2.2v-2.2h-0.8v0.4h0.3v2.4h0.6l0.6-2.2v2.2h0.8v-0.4h-0.3v-2H143.7z"/>
	</g>
	<path class="st3" d="M123.7,14.2c2.8-5.7,7.4-5.7,10.2,0"/>
	<path class="st0" d="M117.2,21.2h-0.8v-0.3c0-1.5,0.6-2.7,1.4-2.9l-0.3,1.8h1l0.6-2.9c-0.1-0.1-0.4-0.1-0.5-0.1
		c-1.9,0-3.1,1.8-3.1,4.2v0.6h0.6l1.2,4h1.7v-1h-0.8L117.2,21.2z M115,24.6v-6.8h0.7v-1h-2.5v1h0.7v6.8h-0.7v1h2.6v-1H115z"/>
	<path class="st0" d="M122.7,23l-3-6.2h1.6l2.1,4.4l1.7-4.4h1.4l-2.6,6.6c-0.3,0.8-0.7,1.4-1,1.7s-0.9,0.4-1.5,0.4h-0.6v-1.4h0.6
		c0.4,0,0.6-0.1,0.8-0.2s0.3-0.4,0.4-0.7L122.7,23z"/>
	<path class="st0" d="M126.1,25.6h-1.4l2.8-8.7h2l2.8,8.7h-1.7l-2.2-7.3h-0.1L126.1,25.6z"/>
	<path class="st0" d="M139.1,21.3c-0.3-0.4-0.6-0.7-1-0.9c-0.4-0.1-1-0.2-1.8-0.2h-1.4v-3.3h-1.5v8.7h3.2c1,0,1.7-0.3,2.2-0.8
		c0.5-0.6,0.7-1.2,0.7-2C139.5,22.3,139.4,21.7,139.1,21.3z M136.5,24.2h-1.6v-2.8h1.6c0.9,0,1.4,0.5,1.4,1.4
		C137.9,23.7,137.5,24.2,136.5,24.2z"/>
	<path class="st0" d="M113.4,37.9v-8.7h5.7v8.7h-1.4v-7.4h-2.9v7.4H113.4z"/>
	<path class="st0" d="M130.5,33.5h-0.8v-0.3c0-1.5,0.5-2.7,1.4-2.9l-0.3,1.8h1.1l0.7-2.9c-0.1-0.1-0.4-0.1-0.5-0.1
		c-2.1,0-3.3,1.8-3.3,4.2v0.6h0.6l1.3,4h1.8v-1h-0.9L130.5,33.5z M129.1,30.1v-1h-2.7v1h0.8v6.8h-0.8v1h2.7v-1h-0.8v-6.8H129.1z"/>
	<rect x="138.4" y="29.2" class="st0" width="0.2" height="1.3"/>
	<polygon class="st0" points="138.7,36.6 138.7,37.9 133.3,37.9 133.3,29.2 137.2,29.2 137.2,30.5 134.8,30.5 134.8,32.9 
		137.9,32.9 137.9,34.2 134.8,34.2 134.8,36.6 	"/>
	<g>
		<path class="st0" d="M125.6,36.8l-1.7-7.7h-2.7v1h0.6l-1.4,6.8h-0.8v1h2.8v-1h-0.7l0.3-1.6h2l0.3,1.6h-0.7v0.9h2.8v-1H125.6z
			 M122.2,34.3l0.7-4h0.1l0.8,4H122.2z"/>
	</g>
</g>
<g>
	<polygon class="st4" points="96.8,139.3 72.5,153.4 72.5,125.3 96.8,111.2 	"/>
	<circle class="st2" cx="34.9" cy="150.2" r="1.3"/>
	<circle class="st2" cx="24.9" cy="163.7" r="1.3"/>
	<circle class="st2" cx="25.9" cy="56.9" r="1.3"/>
	<circle class="st2" cx="104" cy="194.6" r="1.3"/>
	<circle class="st2" cx="114.5" cy="99.1" r="1.3"/>
	<path class="st0" d="M96.6,82.6L68.1,68.9V97l28.6,13.9L96.6,82.6L96.6,82.6z"/>
	<path class="st5" d="M62.8,100.5c-3.8,1.2,48.3-2.4,5.3,27.6"/>
	<path class="st4" d="M50.9,105.2V82.5l3-1.4v-3.4l-10.7,5.4l-0.8,0.4l0.5,3l0.3-0.1l3.2-1.5v22.4l-3.2,1.5l-0.3,0.1l0.3,1.6l0.2,1
		l10.5-5l0.2-2.7L50.9,105.2z M59.7,90.2l-3.2,1.4v-1.1c0-4.7,2.2-9.9,5.8-12.1L61,84.9l4.4-1.9l2.5-12.3c-8.1,4-15.3,14-15.3,21.8
		v2.1l2.7-1.1l4.7,10.1l5.6-2.7l2.1-1l0.2-2.4L64,99.4L59.7,90.2z"/>
	<path class="st0" d="M42.3,58.9L42.3,58.9c4.1,0,6.7,4.5,4.7,8.1l0,0l-4.7,8l-4.7-8.1l0,0C35.6,63.4,38.2,58.9,42.3,58.9L42.3,58.9
		z"/>
	
		<linearGradient id="SVGID_1_" gradientUnits="userSpaceOnUse" x1="14.5492" y1="155.75" x2="43.1673" y2="155.75" gradientTransform="matrix(1 0 0 -1 0 246)">
		<stop  offset="0" style="stop-color:#FFFFFF"/>
		<stop  offset="1" style="stop-color:#36A9E1"/>
	</linearGradient>
	<polygon class="st6" points="14.5,97.8 43.2,112.3 43.2,82.9 14.5,68.2 	"/>
	<polygon class="st7" points="73,125 71.8,176.5 43.2,145.6 43.2,112.3 43.2,112.3 	"/>
	
		<rect x="103.7" y="86.1" transform="matrix(0.3819 -0.9242 0.9242 0.3819 -17.2503 150.5681)" class="st8" width="0.5" height="4.2"/>
	<polygon class="st7" points="105.6,81 105.6,81 103.5,81.1 126.5,70.5 126.3,81 	"/>
	<path class="st9" d="M66.4,134.9c-2.9,2.1-6.7,2.8-10.4,1.6c-3.6-1.2-6.3-4.1-7.3-7.5c2.9-2.1,6.7-2.8,10.4-1.6
		C62.7,128.6,65.4,131.5,66.4,134.9z"/>
	<circle class="st0" cx="57.6" cy="132" r="2.3"/>
	<path class="st10" d="M52.8,116.3c0,0-0.6-0.2-0.7,1.8c-0.2,2-5.6,1.7-5.6,1.7s1.7-0.2,1.7-2.3c0-2.1,1.1-2.8,1.1-2.8L52.8,116.3z"
		/>
	<path class="st0" d="M54.1,113.6l-0.6-1.1c0-0.1,0-0.2,0.1-0.2l10.1-5l8-3.9c0.2-0.1,0.3,0.2,0.2,0.3l-7.4,4.8l-9.4,6.1
		c-0.1,0.1-0.2,0-0.2-0.1L54.1,113.6z"/>
	<path class="st4" d="M76.2,109.3c0,0,1.6-3.4,1.7-1.6s-0.9,2.4-0.9,2.4s7.7,1.4,3.1,3.6c-4.5,2.2-4.6-0.5-4.6-0.5s-0.9,3.3-1.3,2.2
		s0.6-3,0.6-3s-3.6,2.4-2.9,0.8s2.3-2.3,2.3-2.3S74.6,106.7,76.2,109.3z"/>
	<path class="st8" d="M47.3,138.5L47.3,138.5c-1.6,0-2.6-1.7-1.8-3.1l0,0l1.8-3.1l1.8,3.1l0,0C49.9,136.8,48.9,138.5,47.3,138.5
		L47.3,138.5z"/>
	<path class="st7" d="M72.2,133.4c0,0,3.8-4.3,5.3-1.5c1.4,2.9,2.3,3.1,0,6.6c-2.3,3.4-3.6,2.6-3.1,5.3c0.4,2.7-2.1,5.4-3.2,4.1
		C70.1,146.6,72.2,133.4,72.2,133.4z"/>
	<path class="st0" d="M96.7,82.7v28.1h16.5c-5.6-0.2-1.8-5.7-11.5-10.6c2.2-0.5,12.3-5.6,14.8-17.5l0,0H96.7z"/>
	<path class="st2" d="M113.7,83.7c0,0,0.9,7.7-13.4,15.5C100.3,99.2,110.2,90.6,113.7,83.7z"/>
	<path class="st2" d="M105.7,89.7c0,0,1.3,4-5.5,9C100.3,98.7,104.6,93.5,105.7,89.7z"/>
	<path class="st7" d="M44.3,120.8c0,0-4.4,8.3-6.2,9s-2.4,1.6-2.4,2.7c0,1.1,1.8,2.5,3.4,2.5s3.8-0.3,4.2-0.7s0.2,1.3,0.8,1.4
		c0.6,0.1,0.8-0.5,0.8-0.5L44.3,120.8z"/>
	<g>
		<path class="st7" d="M79.6,175.8h2.6v-20.3h-7.6v20.3h2.6v2.9h-9.5v-2.9h2.7v-20.3h-2.7v-2.9h21.4v2.9h-2.7v20.3h2.7v2.9h-9.5
			V175.8z"/>
	</g>
	<path class="st11" d="M75.3,134.5c0,0,2.4-0.7,1.4,0.9c-0.9,1.6-2.8,3.6-3.2,3.7s-1.1-0.2-1.1-0.2"/>
	<polygon class="st2" points="96.8,49.3 95.6,50.1 95.6,39.7 96.8,38.9 	"/>
	<path class="st4" d="M96.5,35.8c0,0,0.2,18.4,0.2,18.6c0,0.2-0.3,0.5-0.4,0.7C96,56,95.5,56.8,95,57.2l-11.6,7.6l-9.8,6.4l0,0
		L70,69.4L68.1,69V51.2c0-1.4,0.7-2.8,1.6-3.6c0.2-0.1,0.3-0.3,0.5-0.3l0.3-0.2l3.4-1.8l0.7-0.4l1.9-1l0.8-0.5l0,0l3.2-1.6l0.5-0.3
		l0,0l2.3-1.2l0.7-0.4h0.1l2-1l0,0l3.4-1.8l0.2-0.1l1.5-0.8l0.7-0.3l2.4-1.2l0.6-0.3H95c0.1,0,0.2-0.1,0.3-0.1
		C96,34,96.5,34.7,96.5,35.8z"/>
	<path class="st4" d="M94.2,56.9c0.8-0.6,1.4-2.1,1.4-3.4V35.8c0-1.3-0.6-2.1-1.4-1.6l-10.7,6v24.2L94.2,56.9z"/>
	<g>
		<path class="st4" d="M81.4,32.8c0,4.4-2.4,9.3-5.4,11c-3.1,1.8-5.8-0.6-5.8-5.3s2.6-9.7,5.8-11.2C79.1,25.9,81.4,28.4,81.4,32.8z"
			/>
		<path class="st4" d="M81.4,32.8c0-4.4-2.4-6.9-5.4-5.4v16.4C79.1,42.1,81.4,37.2,81.4,32.8z"/>
		<g>
			<path class="st4" d="M83.5,30.9c-0.2-4.8-2.5-7.8-5.8-7.4c-0.5,0.1-1.1,0.2-1.7,0.5c-4.4,2-8.2,9.1-8.2,15.8c0,3.5,1,6,2.7,7.3
				c1.5,1.1,3.4,1.2,5.5,0c1.9-1.1,3.6-3.1,4.9-5.6c1.4-2.6,2.3-5.7,2.5-8.7c0-0.3,0-0.7,0-1C83.5,31.5,83.5,31.2,83.5,30.9z
				 M76,25.7c0.2-0.1,0.3-0.1,0.5-0.1c0.3,0,0.5,0.1,0.7,0.3c0.2,0.2,0.4,0.6,0.5,1c0,0,0,0,0,0c0,0.1,0,0.1,0,0.2
				c0,0.1,0,0.2,0,0.3v0c0,0.2,0,0.3,0,0.5c-0.2,1.3-0.9,2.5-1.8,2.9c-1,0.5-1.8-0.3-1.8-1.8c0-0.2,0-0.5,0.1-0.7
				C74.5,27.3,75.2,26.1,76,25.7z M70,33.5c0.4-1.3,1.4-2.3,2.2-2.4c0.2,0,0.3,0,0.5,0.1c0.9,0.3,1.2,1.9,0.7,3.5
				c-0.5,1.6-1.7,2.7-2.7,2.4c-0.1,0-0.3-0.1-0.4-0.2C69.7,36.3,69.5,34.9,70,33.5z M70,43.8c-0.5-0.9-0.3-2.4,0.3-3.7
				c0.1-0.2,0.2-0.4,0.4-0.6c1-1.3,2.2-1.5,2.7-0.4c0.6,1.1,0.2,3-0.7,4.3c-0.1,0.2-0.3,0.3-0.4,0.5C71.5,44.7,70.4,44.8,70,43.8z
				 M76.9,44.3c-0.1,0.1-0.1,0.2-0.2,0.2c-0.2,0.3-0.5,0.5-0.8,0.7c-0.6,0.3-1.1,0.2-1.4-0.3c-0.1-0.1-0.2-0.3-0.2-0.5
				c-0.1-0.2-0.1-0.4-0.1-0.7c0-1.4,0.8-2.9,1.7-3.4s1.6,0.2,1.6,1.5c0,0,0,0.1,0,0.1c0,0.2,0,0.4,0,0.7c0,0,0,0,0,0
				c0,0.2-0.1,0.5-0.2,0.8C77.3,43.7,77.1,44,76.9,44.3z M81.6,37.4c-0.4,1.3-1.2,2.2-1.9,2.2c0,0,0,0,0,0c-0.1,0-0.2,0-0.4,0
				c-0.8-0.3-1.1-1.7-0.6-3.2s1.5-2.5,2.3-2.2c0.1,0,0.2,0.1,0.3,0.2C81.9,35,82,36.2,81.6,37.4z M81.3,31.5
				C81.3,31.5,81.3,31.5,81.3,31.5c-0.1,0.1-0.1,0.2-0.2,0.3c-0.8,1.2-1.9,1.3-2.4,0.2c-0.6-1-0.3-2.8,0.6-3.9
				c0.1-0.1,0.2-0.3,0.3-0.4c0,0,0,0,0,0c0.7-0.7,1.6-0.7,2,0.2C82.2,28.8,82,30.3,81.3,31.5z"/>
		</g>
		<path class="st4" d="M77.4,34.9c0,1.1-0.6,2.3-1.4,2.7s-1.4-0.2-1.4-1.3s0.6-2.4,1.4-2.7C76.8,33.2,77.4,33.8,77.4,34.9z"/>
		<path class="st4" d="M83.5,30.9c-0.3-4.7-2.6-7.7-5.8-7.4c-0.5,0.1-1.1,0.2-1.7,0.5v1.7c0.2-0.1,0.3-0.1,0.5-0.1
			c0.3,0,0.5,0.1,0.7,0.3c0.2,0.2,0.4,0.6,0.5,1c0,0,0,0,0,0c0,0.1,0,0.1,0,0.2c0,0.1,0,0.2,0,0.4v0c0,0.2,0,0.3,0,0.5
			c-0.1,1.3-0.9,2.6-1.8,3v9.3c0.9-0.5,1.6,0.2,1.6,1.5c0,0.2,0,0.5-0.1,0.7c0,0,0,0,0,0c0,0.2-0.1,0.5-0.2,0.7c0,0,0,0,0,0
			c-0.1,0.3-0.3,0.6-0.4,0.9c-0.1,0.1-0.1,0.2-0.2,0.2c-0.2,0.3-0.5,0.6-0.8,0.8v1.9c2-1.1,3.7-3.2,5-5.7c1.4-2.6,2.3-5.7,2.4-8.6
			c0-0.3,0-0.7,0-1C83.5,31.5,83.5,31.2,83.5,30.9z M81.7,27.9c0.5,0.9,0.2,2.5-0.4,3.6c0,0,0,0,0,0c-0.1,0.1-0.1,0.2-0.2,0.3
			c-0.8,1.2-1.9,1.3-2.4,0.2c-0.6-1-0.3-2.8,0.6-3.9c0.1-0.1,0.2-0.3,0.3-0.4c0,0,0,0,0,0C80.4,27,81.3,27,81.7,27.9z M79.7,39.6
			C79.7,39.6,79.7,39.6,79.7,39.6c-0.2,0-0.3,0-0.4,0c-0.8-0.3-1.1-1.7-0.6-3.2s1.5-2.5,2.3-2.2c0.1,0,0.2,0.1,0.3,0.2
			c0.6,0.6,0.7,1.8,0.3,3C81.2,38.7,80.4,39.6,79.7,39.6z"/>
		<path class="st4" d="M77.4,34.9c0-1.1-0.6-1.7-1.4-1.3v4.1C76.8,37.2,77.4,36,77.4,34.9z"/>
	</g>
	<path class="st4" d="M95.1,25.8c0,4.1-2,8.5-4.6,9.9c-2.7,1.5-4.9-0.8-4.9-5.1s2.2-8.8,4.9-10.1C93,19.4,95.1,21.7,95.1,25.8z"/>
	<path class="st4" d="M95.1,25.8c0-4.1-2-6.4-4.6-5.2v15.1C93,34.3,95.1,29.9,95.1,25.8z"/>
	<g>
		<path class="st4" d="M90.5,17.5c-3.7,1.7-6.9,8.1-6.9,14.2c0,3.4,1,5.9,2.5,7c0,0,0.1,0.1,0.1,0.1c1.2,0.8,2.7,0.9,4.2,0
			c1.4-0.8,2.7-2.3,3.8-4.1c0.1-0.2,0.2-0.4,0.4-0.7c1.4-2.7,2.3-6,2.3-9.2C96.9,19.3,94,15.9,90.5,17.5z M93.6,32
			C93.6,32.1,93.6,32.1,93.6,32c-0.2,0-0.3,0-0.4,0c-0.7-0.3-0.9-1.6-0.5-3c0.4-1.4,1.3-2.2,2-1.9c0.1,0,0.2,0.1,0.3,0.2
			c0.4,0.5,0.5,1.7,0.2,2.8C94.9,31.1,94.2,31.9,93.6,32z M93.2,21.4c0.1-0.1,0.2-0.3,0.3-0.4c0,0,0,0,0,0c0.6-0.6,1.3-0.5,1.6,0.3
			c0.3,0.8,0.2,2.1-0.2,3c0,0,0,0,0,0c-0.1,0.2-0.2,0.4-0.3,0.5c-0.7,1-1.6,1.1-2.1,0.1C92.2,24,92.5,22.4,93.2,21.4z M90.5,19.2
			c0.2-0.1,0.4-0.1,0.6-0.1c0.1,0,0.3,0.1,0.4,0.2c0.2,0.2,0.4,0.5,0.4,0.9c0,0,0,0,0,0c0,0.2,0.1,0.4,0.1,0.6
			c-0.1,1.3-0.7,2.7-1.5,3.1c0,0-0.1,0-0.1,0c-0.8,0.3-1.4-0.4-1.4-1.7c0-0.3,0-0.5,0.1-0.8C89.3,20.5,89.9,19.5,90.5,19.2z
			 M85.4,26.1c0.4-1.2,1.2-2.1,1.9-2.1c0.1,0,0.3,0,0.4,0.1c0.8,0.3,1,1.8,0.6,3.2c-0.5,1.5-1.5,2.4-2.3,2.1
			c-0.1-0.1-0.2-0.1-0.3-0.2C85.1,28.6,85,27.3,85.4,26.1z M85.3,35.5c-0.5-0.9-0.2-2.4,0.4-3.6c0.1-0.1,0.2-0.3,0.2-0.4
			c0.8-1.1,1.8-1.2,2.3-0.2s0.2,2.8-0.6,3.9c-0.1,0.1-0.2,0.3-0.3,0.4C86.6,36.4,85.7,36.4,85.3,35.5z M89.7,37
			c-0.1,0-0.1-0.1-0.2-0.2c-0.1-0.2-0.2-0.4-0.3-0.7c0-0.2-0.1-0.4-0.1-0.6c0-1.3,0.6-2.6,1.4-3c0.2-0.1,0.3-0.1,0.4-0.1
			c0.6-0.1,1,0.5,1,1.6c0,0.2-0.1,0.5-0.1,0.7c0,0,0,0,0,0c-0.1,0.4-0.2,0.7-0.3,1c-0.1,0.2-0.1,0.3-0.2,0.4
			c-0.2,0.4-0.5,0.7-0.7,0.8c0,0-0.1,0-0.1,0C90.1,37.2,89.9,37.1,89.7,37z"/>
	</g>
	<path class="st4" d="M91.6,27.6c0,1-0.5,2.1-1.2,2.5c-0.6,0.3-1.2-0.2-1.2-1.3c0-1,0.5-2.1,1.2-2.5C91.1,26,91.6,26.5,91.6,27.6z"
		/>
	<path class="st4" d="M90.4,17.6v1.6c0.3-0.1,0.5-0.1,0.7-0.1c0.1,0,0.3,0.1,0.4,0.2c0.2,0.2,0.3,0.5,0.4,0.9c0,0,0,0,0,0
		c0,0.2,0,0.3,0,0.5c0,1.2-0.6,2.6-1.4,3c0,0-0.1,0-0.1,0.1v8.6c0,0,0.1,0,0.1,0c0.2-0.1,0.3-0.1,0.4-0.1c0.5,0,0.9,0.6,0.9,1.6
		c0,0.2,0,0.5-0.1,0.8c0,0,0,0,0,0c-0.1,0.3-0.2,0.7-0.3,1c-0.1,0.2-0.1,0.3-0.2,0.4c-0.2,0.4-0.5,0.6-0.8,0.8v1.8
		c1.4-0.8,2.7-2.2,3.7-4c0.1-0.2,0.3-0.5,0.4-0.7c1.4-2.7,2.3-6,2.3-9.2C96.8,19.3,94,15.9,90.4,17.6z M95.2,21.3
		c0.3,0.8,0.2,2.1-0.2,3c0,0,0,0,0,0c-0.1,0.2-0.2,0.4-0.3,0.5c-0.7,1-1.6,1.1-2.1,0.1c-0.4-1-0.1-2.6,0.6-3.6
		c0.1-0.1,0.2-0.3,0.3-0.4c0,0,0,0,0,0C94.2,20.4,94.9,20.5,95.2,21.3z M93.6,32C93.6,32.1,93.6,32.1,93.6,32c-0.2,0-0.3,0-0.4,0
		c-0.7-0.3-0.9-1.6-0.5-3c0.4-1.4,1.3-2.2,2-1.9c0.1,0,0.2,0.1,0.3,0.2c0.4,0.5,0.5,1.7,0.2,2.8C94.9,31.1,94.2,31.9,93.6,32z"/>
	<path class="st4" d="M91.6,27.6c0-1-0.5-1.6-1.2-1.3V30C91.1,29.7,91.6,28.6,91.6,27.6z"/>
	<polygon class="st2" points="96.8,38.9 96.8,44.1 96.8,49.3 100.3,50.7 100.3,41.9 100.3,33.1 	"/>
	<polygon class="st10" points="73,68.5 73,60.8 81.4,56.2 81.4,62.4 	"/>
	<path class="st2" d="M75.1,52.8c0,0.4-0.2,0.9-0.5,1.1l-1,0.6c-0.3,0.2-0.6,0-0.6-0.5v-1.5c0-0.4,0.2-1,0.6-1.1l1-0.6
		c0.3-0.2,0.5,0,0.5,0.5V52.8z"/>
	<path class="st2" d="M78.5,50.7c0,0.4-0.2,0.9-0.5,1.1l-1,0.6c-0.3,0.2-0.5,0-0.5-0.5v-1.4c0-0.4,0.2-0.9,0.5-1.1l1-0.6
		c0.3-0.2,0.5,0,0.5,0.5V50.7z"/>
	<path class="st2" d="M81.9,48.7c0,0.4-0.2,0.9-0.5,1.1l-0.9,0.6c-0.3,0.2-0.5,0-0.5-0.5v-1.4c0-0.4,0.2-0.9,0.5-1.1l0.9-0.6
		c0.3-0.2,0.5,0,0.5,0.5V48.7z"/>
	<path class="st8" d="M93.7,52.3c0,0.7-0.4,1.5-0.8,1.8s-0.8,0-0.8-0.8c0-0.7,0.4-1.5,0.8-1.8C93.3,51.2,93.7,51.6,93.7,52.3z"/>
	<path class="st10" d="M125.1,68.6L125.1,68.6L96.7,82.7L68.1,69l5.4-3.1l0.4-0.2l7.5-3.7l0.4-0.2l1.8-0.9l0.3-0.2L95.5,55l0.3-0.1
		l0.7-0.4h0.1C95.3,67.8,98,77.9,125.1,68.6L125.1,68.6z"/>
	<path class="st12" d="M52.8,116.3l-3.5-1.7C57.2,110.8,52.8,116.3,52.8,116.3z"/>
	<path class="st7" d="M28.8,78.7v-0.6h-0.6v16.2c-0.2-0.2-0.5-0.4-0.8-0.5c-0.5-0.2-1-0.3-1.5-0.3c-1,0-2,0.3-2.9,0.7
		c-0.9,0.5-1.6,1.2-2,2s-0.6,1.7-0.1,2.5c0.5,0.7,1.6,1,2.5,1.1c1,0,2-0.2,2.9-0.7s1.6-1.1,2-1.9c0.2-0.4,0.4-0.8,0.4-1.3
		c0-0.1,0-0.1,0-0.2l0,0V82.2c1.4,2.8,6.5,0.1,6.9,8.3C36.3,78,32.7,84.2,28.8,78.7z"/>
	<circle class="st8" cx="42.3" cy="64" r="3"/>
	<g>
		<path class="st13" d="M90.3,117.2c6.3,0.1,6,20.1,12.3,20.2c6.3,0.1,6.6-19.9,12.9-19.8s6,20.1,12.3,20.2
			c6.3,0.1,6.6-19.9,12.9-19.8s6,20.1,12.3,20.2"/>
	</g>
	<polygon class="st8" points="52.7,31.1 54.5,31.1 53.6,33.2 52.7,35.2 51.8,33.2 50.8,31.1 	"/>
	<polygon class="st8" points="52.7,27.2 54.6,27.2 53.6,29.2 52.7,31.2 51.8,29.2 50.9,27.2 	"/>
	<polygon class="st8" points="52.7,23.1 54.6,23.1 53.6,25.1 52.7,27.2 51.8,25.1 50.9,23.1 	"/>
	<polygon class="st8" points="56.4,23.1 58.2,23.1 57.3,25.1 56.4,27.2 55.5,25.1 54.6,23.1 	"/>
	<polygon class="st7" points="43.2,21.9 46.4,14.4 46.4,22.6 52.4,17.1 49,24.5 56.8,21.9 50.6,27.4 58.8,28.1 51,30.6 58.1,34.6 
		50,33.7 54.8,40.3 47.8,36.1 49.5,44.1 44.8,37.5 43.2,45.5 41.5,37.5 36.8,44.1 38.6,36.1 31.5,40.3 36.4,33.7 28.2,34.6 
		35.4,30.6 27.6,28.1 35.7,27.4 29.6,21.9 37.3,24.5 33.9,17.1 40,22.6 39.9,14.4 	"/>
	<polygon class="st2" points="68.1,69 96.8,111.2 96.7,82.7 	"/>
</g>
</svg>
